<svg xmlns="http://www.w3.org/2000/svg" id="Capa_1" data-name="Capa 1" viewBox="0 0 576 113.39"><defs><style>      .cls-1 {        fill: #fff;        stroke-width: 0px;      }    </style></defs><path class="cls-1" d="M556.09,105.17v-42.96c0-16.42-8.79-27.45-25.34-27.45-8.92,0-15.51,3.15-19.05,7.89V6.66h-18.66v98.51h18.66v-39.26c0-9.44,5-15.12,14.05-15.12,8.27,0,11.68,5.52,11.68,13.53v40.85h18.66ZM437.88,70.74c0-11.55,5.78-19.44,15.77-19.44,6.85,0,12.36,4.35,13.79,10.25h19.18c-1.3-11.68-11.42-26.8-32.84-26.8-19.96,0-34.56,15.51-34.56,35.99s14.57,35.99,34.56,35.99c21.42,0,31.54-15.12,32.84-26.8h-19.18c-1.46,5.91-6.98,10.25-13.79,10.25-9.99,0-15.77-7.85-15.77-19.44h0ZM417.92,52.9c1.72,0,3.67.39,3.67.39v-17.46s-1.59-.13-2.24-.13c-11.68,0-16.94,5.52-19.44,9.6v-8.92h-17.2v68.82h18.66v-34.33c0-12.59,5.65-17.98,16.55-17.98h0ZM375.22,70.74c0-19.57-14.05-35.99-36.12-35.99s-36.12,16.42-36.12,35.99,14.05,35.99,36.12,35.99c22.07.03,36.12-16.39,36.12-35.99h0ZM356.56,70.74c0,12.36-7.63,19.57-17.46,19.57s-17.46-7.24-17.46-19.57,7.63-19.57,17.46-19.57,17.46,7.24,17.46,19.57h0ZM291.24,51.37h11.32v-14.7h-11.42v-17.07h-18.66v13.01c0,10.38,8.4,18.76,18.76,18.76h0ZM240.33,105.17h18.66v-42.96c0-16.42-8.79-27.45-25.34-27.45-8.92,0-15.51,3.15-19.05,7.89V6.66h-18.66v98.51h18.66v-39.26c0-9.44,5-15.12,14.05-15.12,8.27,0,11.68,5.52,11.68,13.53v40.85h0ZM140.75,70.74c0-11.55,5.78-19.44,15.77-19.44,6.85,0,12.36,4.35,13.79,10.25h19.18c-1.3-11.68-11.42-26.8-32.84-26.8-19.96,0-34.56,15.51-34.56,35.99s14.57,35.99,34.56,35.99c21.42,0,31.54-15.12,32.84-26.8h-19.18c-1.46,5.91-6.98,10.25-13.79,10.25-9.99,0-15.77-7.85-15.77-19.44h0ZM118.81,76.13s.26-2.5.26-5.52c0-20.35-13.79-35.86-34.17-35.86s-34.56,15.51-34.56,35.86,14.31,36.12,34.69,36.12c15.9,0,28.49-9.57,32.58-23.53h-18.79c-2.24,5-7.63,7.5-13.27,7.5-9.31,0-15.38-5.13-16.68-14.57h49.94ZM100.41,62.73h-31.28c1.59-7.89,7.11-13.01,15.64-13.01,8.7.03,14.34,5.29,15.64,13.01h0ZM38.66,51.37h11.32v-14.7h-11.42v-17.07h-18.66v13.01c0,10.38,8.37,18.76,18.76,18.76h0ZM19.91,70.03v14.86c0,13.27,6.04,21.03,21.16,21.03,5.65,0,8.79-.78,8.79-.78v-16.16s-1.85.65-4.35.65c-4.87,0-6.98-2.11-6.98-6.68v-31.54c-10.29-.03-18.63,8.34-18.63,18.63h0ZM272.49,70.03v14.86c0,13.27,6.04,21.03,21.16,21.03,5.65,0,8.79-.78,8.79-.78v-16.16s-1.85.65-4.35.65c-4.87,0-6.98-2.11-6.98-6.68v-31.54c-10.25-.03-18.63,8.34-18.63,18.63h0Z"></path></svg>